<svg xmlns="http://www.w3.org/2000/svg" version="1.1" xmlns:xlink="http://www.w3.org/1999/xlink" xmlns:svgjs="http://svgjs.dev/svgjs" width="100%" height="100%" viewBox="0 0 1000 600"><rect width="1000" height="600" x="0" y="0" fill="#aa96da"/><g><circle r="166.66666666666666" cx="385.61864725748694" cy="407.8408457430079" fill="#c5fad5" transform="matrix(0.5709015812691502,0,0,0.5709015812691502,0,67.1630295251443)"/><path d="M352.493207757803 359.87880323089877L339.9756396768188 360.90656145228485Q338.6843537063594 360.61668092830416 338.49988428200805 359.1409255334934L338.49988428200805 359.1409255334934L339.79117025246745 342.0906801684476Q339.8965813520968 339.8770470762314 341.4777478465369 339.8770470762314L341.4777478465369 339.8770470762314L409.28343768311015 341.45821357067155L409.2043793583881 336.53024466299985Q409.2043793583881 334.42202267041307 411.23354302625296 334.1321421464324L411.23354302625296 334.1321421464324L425.85933309982386 332.84085617597293Q427.440499594264 332.84085617597293 427.80943844296667 334.97543094346713L427.80943844296667 334.97543094346713L432.81646567536035 373.87212670669373Q432.81646567536035 375.34788210150447 430.6818909078662 375.5323515258558L430.6818909078662 375.5323515258558L413.81611496717176 376.9290485959446Q410.12672648014484 376.9290485959446 409.9422570557935 373.3187184336397L409.9422570557935 373.3187184336397L409.6523765318128 360.5376226035821L373.2591943847831 359.5098643821961L372.6003750120997 403.624409577075L420.4043086940055 403.4399401527237Q422.0645335131676 403.4399401527237 422.0645335131676 405.1792232966078L422.0645335131676 405.1792232966078L421.4320669153916 420.2003049937888Q421.2475974910402 422.33487976128293 418.92855329919473 422.33487976128293L418.92855329919473 422.33487976128293L372.31049448811893 421.1226521155455L371.75708621506493 462.62827259459834L395.6590530560179 461.2315755245096Q397.6091583991607 461.2315755245096 397.793627823512 463.2870919672817L397.793627823512 463.2870919672817L398.8213860448981 479.59945963492214Q398.7159749452687 480.7853345057522 398.4524471961954 481.2596844540842Q398.16256667221467 481.7076816275089 397.161161225736 481.7076816275089L397.161161225736 481.7076816275089L341.6622172708883 482.84085094852435Q340.55540072478016 482.65638152417296 340.0283452266335 482.3137954503776Q339.52764250339413 481.9975621514896 339.4222314037648 480.89074560538154L339.4222314037648 480.89074560538154L338.42082595728607 464.0249696646871Q338.42082595728607 462.18027542117363 340.08105077644814 461.99580599682224L340.08105077644814 461.99580599682224L351.75533006039757 462.5492142698763L352.493207757803 359.87880323089877Z " fill="#aa96da" transform="matrix(0.5709015812691502,0,0,0.5709015812691502,0,67.1630295251443)"/><path d="M649.2225846856711 358.97876316327233L637.1217017530139 359.972309340901Q635.873400145224 359.69207836772364 635.695071344111 358.2654479588209L635.695071344111 358.2654479588209L636.943372951901 341.78277162739084Q637.0452751239654 339.6428260140367 638.5738077049327 339.6428260140367L638.5738077049327 339.6428260140367L704.1223798854112 341.171358595004L704.0459532563628 336.4074320509894Q704.0459532563628 334.36938860969974 706.0075700686041 334.08915763652243L706.0075700686041 334.08915763652243L720.1464964425511 332.8408560287325Q721.6750290235184 332.8408560287325 722.031686625744 334.90437501303825L722.031686625744 334.90437501303825L726.872039798807 372.5062765048324Q726.872039798807 373.9329069137351 724.8085208145012 374.11123571484796L724.8085208145012 374.11123571484796L708.5041732841839 375.4614394947024Q704.9375972619271 375.4614394947024 704.7592684608142 371.9712901014938L704.7592684608142 371.9712901014938L704.4790374876369 359.6156517386753L669.2973125823743 358.6221055610466L668.6604240069712 401.2681645700326L714.8730590382141 401.0898357689198Q716.4780182482298 401.0898357689198 716.4780182482298 402.7712216079837L716.4780182482298 402.7712216079837L715.8666052158428 417.2922811271725Q715.6882764147299 419.3558001114783 713.4464286293114 419.3558001114783L713.4464286293114 419.3558001114783L668.380193033794 418.1839251327367L667.8452066304553 458.30790538312675L690.9515241460768 456.95770160327237Q692.8367143292697 456.95770160327237 693.0150431303825 458.9447939585298L693.0150431303825 458.9447939585298L694.0085893080113 474.7141550855084Q693.9066871359469 475.8605545212339 693.6519317057856 476.31911429552406Q693.3717007326084 476.7521985267981 692.4036300979957 476.7521985267981L692.4036300979957 476.7521985267981L638.7521365060456 477.8476468764913Q637.6821636993685 477.66931807537844 637.1726528390461 477.33813601616885Q636.6886175217398 477.0324294999755 636.5867153496754 475.96245669329835L636.5867153496754 475.96245669329835L635.6186447150628 459.65810916298113Q635.6186447150628 457.8748211518527 637.2236039250784 457.69649235073985L637.2236039250784 457.69649235073985L648.5092694812198 458.2314787540784L649.2225846856711 358.97876316327233ZM797.7959515556869 374.31504005897693L797.7959515556869 374.31504005897693Q824.3159918354685 374.31504005897693 824.3159918354685 407.25491717882096L824.3159918354685 407.25491717882096Q824.3159918354685 415.0504333417539 823.9593342332428 427.40607170457235L823.9593342332428 427.40607170457235L823.3224456578397 444.9587208426795Q823.144116856727 450.2576337900326 822.8893614265656 454.9960847910311L822.8893614265656 454.9960847910311L822.53270382434 463.50491615841537L827.9080434007415 463.0463563841252Q830.8632063906115 462.86802758301235 834.6081112139813 462.51136998078664L834.6081112139813 462.51136998078664Q836.4933013971742 462.51136998078664 836.4933013971742 464.21823136286673L836.4933013971742 464.21823136286673L834.8883421871585 478.38263327982986Q834.6081112139813 479.98759248984544 832.9267253749173 480.1659212909583L832.9267253749173 480.1659212909583L807.0435736705386 481.7708805009739Q805.7697965197326 481.7708805009739 805.7697965197326 479.8092636887326L805.7697965197326 479.8092636887326L807.0435736705386 469.338815509107Q792.0639543770598 480.87923649540966 774.5113052389526 480.87923649540966L774.5113052389526 480.87923649540966Q760.8309386392958 480.87923649540966 751.9399741266697 472.9053915313639L751.9399741266697 472.9053915313639Q742.5394987537212 464.4984623360441 742.5394987537212 450.2576337900326L742.5394987537212 450.2576337900326Q742.5394987537212 431.71143847429676 755.3536968908298 424.1961532845412L755.3536968908298 424.1961532845412Q766.6393624469713 417.5725121003498 792.5225141513498 417.5725121003498L792.5225141513498 417.5725121003498Q797.8978537277513 417.5725121003498 803.9865085086042 417.82726753051105L803.9865085086042 417.82726753051105Q804.0884106806687 415.50899311604405 804.0884106806687 413.52190076078665L804.0884106806687 413.52190076078665L804.0884106806687 410.1336535396426Q804.0884106806687 392.65743103058384 788.752133784964 392.65743103058384L788.752133784964 392.65743103058384Q780.7782888209183 392.65743103058384 769.0595390335028 397.49778420364675L769.0595390335028 397.49778420364675L769.4161966357284 400.91150696780693Q769.5945254368413 402.59289280687085 769.5945254368413 403.5864389844996L769.5945254368413 403.5864389844996Q769.5945254368413 405.54805579674087 767.6329086246 405.54805579674087L767.6329086246 405.54805579674087L752.5004360730244 405.8282867699182Q750.8700013199926 405.54805579674087 750.6916725188797 403.8666699576769L750.6916725188797 403.8666699576769L749.1631399379125 378.2382736834595Q749.1631399379125 376.09832807010537 751.1502322931699 375.81809709692806L751.1502322931699 375.81809709692806L766.1043760436328 373.85648028468677Q767.9895662268257 373.85648028468677 767.9895662268257 375.81809709692806L767.9895662268257 375.81809709692806L767.9895662268257 383.2569556576353Q784.0136827839656 374.31504005897693 797.7959515556869 374.31504005897693ZM780.7782888209183 463.9634759327056L780.7782888209183 463.9634759327056Q791.0958837424472 463.9634759327056 803.4515221052657 458.05314995296555L803.4515221052657 458.05314995296555Q803.6298509063785 452.1428239732256 803.6808019924107 445.0096719287118Q803.7062775354268 437.9019954272141 803.9100818795558 430.89622109778094L803.9100818795558 430.89622109778094Q780.3452045896441 430.89622109778094 771.199484646857 434.94683243734414L771.199484646857 434.94683243734414Q762.792555451537 438.69173726071386 762.792555451537 447.48079960127546L762.792555451537 447.48079960127546Q762.792555451537 463.9634759327056 780.7782888209183 463.9634759327056ZM842.5055295489786 394.0076348104382L842.5055295489786 378.87516225886253Q842.5055295489786 377.066398704718 844.5690485332844 377.066398704718L844.5690485332844 377.066398704718L885.2280151870129 377.066398704718Q886.4763167948029 377.066398704718 886.6546455959157 377.5759095650404Q886.8329743970286 378.05994488234666 886.8329743970286 379.0534910599754L886.8329743970286 379.0534910599754L885.4827706171742 393.3707462350352Q885.3044418160613 394.5426212137767 884.9477842138357 394.89927881600244Q884.59112661161 395.2559364182281 883.5211538049329 395.2559364182281L883.5211538049329 395.2559364182281L874.1206784319844 395.53616739140546L896.9467649744284 459.65810916298113L916.8431640700187 394.1859636115511L905.914156116103 395.3578385902926Q904.4875257072002 395.3578385902926 904.3856235351358 393.82930600932536L904.3856235351358 393.82930600932536L903.392077357507 379.0534910599754Q903.6723083306844 377.27020304884695 905.3791697127645 377.066398704718L905.3791697127645 377.066398704718L943.6179597799616 375.28311069358955Q945.0445901888643 375.385012865654 945.0445901888643 377.4485318499598L945.0445901888643 377.4485318499598L945.0445901888643 393.82930600932536Q944.6879325866386 395.71449619251825 943.082973376623 395.71449619251825L943.082973376623 395.71449619251825L934.217484407013 395.71449619251825L906.4491425194415 475.8605545212339Q905.914156116103 477.567415903314 904.02896593291 477.7457447044268L904.02896593291 477.7457447044268L888.00484937577 478.4590599088782Q886.2979879936901 478.28073110776535 885.4827706171742 476.31911429552406L885.4827706171742 476.31911429552406L852.6193201263785 395.9692516226795L844.3907197321715 396.14758042379236Q842.5055295489786 396.14758042379236 842.5055295489786 394.0076348104382L842.5055295489786 394.0076348104382ZM999.5113011573302 476.4974430966369L960.7120491437785 478.637388709991Q959.4637475359885 478.637388709991 959.4637475359885 476.4974430966369L959.4637475359885 476.4974430966369L959.4637475359885 462.96992975507686Q959.4637475359885 461.2630683729967 960.8903779448914 461.2630683729967L960.8903779448914 461.2630683729967L971.6410570976942 461.2630683729967L972.3543723021456 398.6696591823883L957.858788325973 397.14112660142104Q956.2538291159574 396.9627978003082 956.2538291159574 395.17950978917975L956.2538291159574 395.17950978917975L958.2154459281986 380.40369483982977Q958.5721035304243 378.7732600867981 960.3553915415528 378.5185046566368L960.3553915415528 378.5185046566368L989.1172796067531 375.56334166676686Q990.1108257843817 375.56334166676686 990.3655812145429 376.04737698407314Q990.6458121877203 376.5314123013794 990.7222388167686 377.62686065107266L990.7222388167686 377.62686065107266L991.8941137955102 393.9057326383737L991.6138828223328 461.2630683729967L1001.8295755717971 461.2630683729967Q1003.2562059807 461.2630683729967 1003.2562059807 462.96992975507686L1003.2562059807 462.96992975507686L1001.6512467706845 474.7141550855084Q1001.4729179695715 475.78412789218555 1001.0653092813136 476.089834408379Q1000.6577005930557 476.3955409245724 999.5113011573302 476.4974430966369L999.5113011573302 476.4974430966369ZM988.5822932034145 355.4121871410154Q986.8754318213345 356.7369153778537 983.9966954605128 357.19547515214384Q981.1434346427073 357.65403492643406 977.1437743891762 357.65403492643406Q973.1695896786615 357.65403492643406 971.0551196083235 357.19547515214384Q968.9661250810017 356.7369153778537 967.7178234732118 355.59051594212826L967.7178234732118 355.59051594212826Q965.654304488906 353.425094785758 965.654304488906 347.9733285803082Q965.654304488906 342.49608683184226 966.2402419782767 340.126861331343Q966.8007039246313 337.7576358308438 968.4311386776631 336.4074320509894L968.4311386776631 336.4074320509894Q971.2079728664202 334.08915763652243 977.5259075344181 334.08915763652243Q983.8183666593999 334.08915763652243 985.9837878157701 334.39486415271585Q988.1237334291243 334.72604621192545 989.3720350369142 335.87244564765086L989.3720350369142 335.87244564765086Q991.5374561932845 337.7576358308438 991.5374561932845 343.4132063804226Q991.5374561932845 349.04330138698526 990.9005676178814 351.5653801455812Q990.2891545854945 354.061983361161 988.5822932034145 355.4121871410154ZM1028.0693848784017 383.0022002274741Q1031.9161918738357 378.87516225886253 1037.7500912245273 376.5059367583633Q1043.5585150322029 374.11123571484796 1052.0418708565712 374.11123571484796Q1060.499751137923 374.11123571484796 1070.8937726885003 376.7097411024923L1070.8937726885003 376.7097411024923L1087.733106622156 373.57624931150946Q1089.3380658321717 373.85648028468677 1089.5163946332846 375.56334166676686L1089.5163946332846 375.56334166676686L1091.0449272142519 407.4332459799338Q1090.866598413139 409.5986671363041 1089.0578348589943 409.85342256646527L1089.0578348589943 409.85342256646527L1074.1036911085316 411.8405149217227Q1072.2185009253385 411.8405149217227 1072.2185009253385 409.85342256646527L1072.2185009253385 409.85342256646527L1072.2185009253385 394.7209500148896Q1066.4865037467116 393.3707462350352 1059.9647647345846 393.3707462350352Q1053.4175501794416 393.3707462350352 1048.449819291298 395.53616739140546Q1043.4820884031546 397.6761130047596 1040.7052542143974 401.981479774484L1040.7052542143974 401.981479774484Q1035.8649010413344 409.49676496423956 1035.8649010413344 427.8646314788626L1035.8649010413344 427.8646314788626Q1035.8649010413344 455.45464456532125 1047.150566597476 459.3014515607555L1047.150566597476 459.3014515607555Q1050.7426181627488 460.54975316854535 1055.3791669916827 460.54975316854535L1055.3791669916827 460.54975316854535Q1062.1047103479386 460.54975316854535 1070.7918705164357 458.8428917864653L1070.7918705164357 458.8428917864653L1071.1485281186615 452.6778103765641Q1071.3268569197744 450.5123892201938 1073.0337183018546 450.33406041908097L1073.0337183018546 450.33406041908097L1087.1726446758014 450.86904682241953Q1088.4464218266075 451.04737562353233 1088.6247506277205 452.9325658067253L1088.6247506277205 452.9325658067253L1090.2297098377358 480.98113866747417Q1090.2297098377358 482.84085330765095 1088.4464218266075 482.84085330765095L1088.4464218266075 482.84085330765095L1071.250430290726 482.84085330765095Q1069.9002265108716 482.84085330765095 1069.7218977097587 481.15946746858697L1069.7218977097587 481.15946746858697L1069.97665313992 476.0388833223467Q1037.5717624234144 482.4077690763769 1025.4708794907572 466.9950655516239L1025.4708794907572 466.9950655516239Q1016.8856214943245 455.8877287965953 1016.8856214943245 431.0745498988938L1016.8856214943245 431.0745498988938Q1016.8856214943245 414.5154469384153 1018.3122519032272 406.36327317325674Q1019.73888231213 398.2110994080981 1021.9807300975486 392.65743103058384Q1024.2225778829675 387.1037626530695 1028.0693848784017 383.0022002274741ZM1111.1960817400031 427.0494141023467L1111.1960817400031 427.0494141023467Q1111.1960817400031 411.73861274965816 1113.7436360416154 401.57387108622606Q1116.2911903432273 391.4091294227939 1121.309872317403 385.3204746419411L1121.309872317403 385.3204746419411Q1130.6339210613032 374.31504005897693 1151.676719592619 374.31504005897693L1151.676719592619 374.31504005897693Q1166.3506323699044 374.31504005897693 1173.1271268121927 377.27020304884695Q1179.8781457114646 380.2253660387169 1183.7759037929309 383.97027086208664Q1187.6736618743976 387.74065122847253 1190.4504960631548 393.6509772082125L1190.4504960631548 393.6509772082125Q1196.0041644406688 405.7263845978537 1196.0041644406688 424.04330002644446Q1196.0041644406688 442.36021545503525 1193.456610139057 452.3211527743384Q1190.9090558374446 462.25661455062544 1185.7884716912044 468.24336715941376L1185.7884716912044 468.24336715941376Q1176.2860941461915 479.17237511332957 1155.064966813763 479.17237511332957L1155.064966813763 479.17237511332957Q1132.8502933037057 479.17237511332957 1122.7365027263058 468.4216959605267L1122.7365027263058 468.4216959605267Q1111.1960817400031 456.244386398821 1111.1960817400031 427.0494141023467ZM1172.1845317205962 454.91965816198274Q1174.8594637372887 451.32760659670964 1176.209667517143 444.88229421363116Q1177.5598712969977 438.43698183055267 1177.5598712969977 429.11293308665245Q1177.5598712969977 419.78888434275234 1176.5663251193687 414.05688716412516Q1175.5727789417401 408.32488998549803 1173.840442016644 404.529034076096Q1172.0826295485317 400.7331781666941 1169.6624529620003 398.5168059242916Q1167.2422763754685 396.3259092249052 1164.3890155576632 395.2559364182281L1164.3890155576632 395.2559364182281Q1160.0836487879387 393.6509772082125 1153.0014478294572 393.6509772082125Q1145.9447224139917 393.6509772082125 1141.7157822733157 394.7209500148896Q1137.5123176756558 395.79092282156665 1134.7354834868988 399.2810722147752L1134.7354834868988 399.2810722147752Q1129.4620460825618 406.1085177430955 1129.4620460825618 426.69275650012105L1129.4620460825618 426.69275650012105Q1129.4620460825618 455.98963096865975 1145.2314072095405 459.73453579202953L1145.2314072095405 459.73453579202953Q1150.0462848395873 460.90641077077106 1155.701855389166 460.90641077077106Q1161.3319503957287 460.90641077077106 1165.4080372783078 459.7090602490134Q1169.4841241608874 458.4862341842396 1172.1845317205962 454.91965816198274ZM1278.0354129525772 396.504238026018L1278.0354129525772 396.504238026018Q1266.6733207673874 396.504238026018 1252.0758346191506 405.8282867699182L1252.0758346191506 405.8282867699182L1253.1458074258276 459.4797803618683L1262.9029404010016 458.40980755519126Q1264.431472981969 458.40980755519126 1264.431472981969 459.91286459314233L1264.431472981969 459.91286459314233L1262.7246115998887 473.7970355369281Q1262.3679539976633 475.78412789218555 1260.7629947876476 475.78412789218555L1260.7629947876476 475.78412789218555L1223.4158487260147 475.78412789218555Q1221.9637427740959 475.78412789218555 1221.9637427740959 473.6187067358153L1221.9637427740959 473.6187067358153L1223.7725063282405 459.91286459314233Q1224.1291639304661 458.05314995296555 1225.7341231404816 458.05314995296555L1225.7341231404816 458.05314995296555L1233.3513105023017 458.05314995296555L1233.3513105023017 398.8479879835011L1219.645468359629 398.4913303812755Q1217.8621803485005 398.4913303812755 1217.8621803485005 396.3259092249052L1217.8621803485005 396.3259092249052L1219.467139558516 380.8367790711038Q1219.645468359629 379.3082464901366 1221.60708517187 378.95158888791093L1221.60708517187 378.95158888791093L1246.4202640695717 375.28311069358955Q1248.0506988226034 375.28311069358955 1248.0506988226034 377.3466296778953L1248.0506988226034 377.3466296778953L1248.0506988226034 392.8357598316967Q1266.4949919662745 374.3914666880253 1284.3023965345433 374.3914666880253L1284.3023965345433 374.3914666880253Q1304.733782033472 374.3914666880253 1308.6824912009706 393.82930600932536L1308.6824912009706 393.82930600932536Q1309.9307928087605 400.2746183924039 1309.9307928087605 405.87923785595046Q1309.9307928087605 411.45838177648085 1309.828890636696 415.27971322889897Q1309.7524640076476 419.0755691383009 1309.5741352065347 423.66116688120263L1309.5741352065347 423.66116688120263L1309.3958064054218 432.9597400820867Q1309.217477604309 437.9019954272141 1309.039148803196 442.8187752293254L1309.039148803196 442.8187752293254L1308.6824912009706 452.3211527743384Q1308.5041623998577 456.88127497422397 1308.3258335987448 460.7280819696582L1308.3258335987448 460.7280819696582L1318.6179529772576 460.29499773838415Q1320.5031431604502 460.29499773838415 1320.5031431604502 462.4349433517383L1320.5031431604502 462.4349433517383L1320.5031431604502 475.60579909107264Q1320.5031431604502 476.67577189774977 1319.993632300128 476.9814784139432Q1319.5095969828217 477.2871849301366 1318.4396241761447 477.38908710220113L1318.4396241761447 477.38908710220113L1292.4545702997016 479.3507039144424Q1290.4929534874605 479.3507039144424 1290.4929534874605 477.38908710220113L1290.4929534874605 477.38908710220113Q1290.7477089176214 467.6319541270269 1290.7477089176214 459.0212205875781L1290.7477089176214 459.0212205875781L1290.9260377187343 444.06707683711534Q1290.9260377187343 437.72366662610125 1290.9260377187343 432.1699982485869L1290.9260377187343 432.1699982485869L1290.9260377187343 415.76374854620525Q1290.9260377187343 404.65641179117665 1289.0663230785576 401.57387108622606Q1287.1811328953645 398.4913303812755 1284.6590541367686 397.49778420364675Q1282.1624509211888 396.504238026018 1278.0354129525772 396.504238026018ZM1365.4420010408871 460.2440466523519Q1366.5374493905806 462.61327215285115 1367.0214847078869 465.2882041695438Q1367.5055200251932 467.9886117292526 1367.5055200251932 470.30688614371957Q1367.5055200251932 472.6506361012027 1365.9515119012099 474.56130182741174Q1364.3720282342101 476.4974430966369 1361.7735228465658 477.7457447044268L1361.7735228465658 477.7457447044268Q1356.3981832701647 480.3442500920711 1351.404976839005 480.3442500920711Q1346.3862948648293 480.3442500920711 1344.5011046816362 478.7647664250716Q1342.615914498443 477.2107583010883 1341.4440395197016 474.89248388662133L1341.4440395197016 474.89248388662133Q1339.2021917342831 470.4087883157841 1339.2021917342831 466.0524704600274Q1339.2021917342831 461.7216281472869 1341.1892840895403 459.73453579202953Q1343.1509009017818 457.7729189797882 1346.0296372626035 456.6010440010467L1346.0296372626035 456.6010440010467Q1350.9464170647148 454.7413293608698 1355.83772132381 454.7413293608698Q1360.7035500398888 454.7413293608698 1362.5377891370495 456.29533748485323Q1364.3720282342101 457.8748211518527 1365.4420010408871 460.2440466523519ZM1427.882556973399 476.4974430966369L1389.1087805028633 478.637388709991Q1387.8350033520574 478.637388709991 1387.8350033520574 476.4974430966369L1387.8350033520574 476.4974430966369L1387.8350033520574 462.96992975507686Q1387.8350033520574 461.2630683729967 1389.2871093039762 461.2630683729967L1389.2871093039762 461.2630683729967L1400.0377884567793 461.2630683729967L1400.7511036612304 398.6696591823883L1386.230044142042 397.14112660142104Q1384.6250849320263 396.9627978003082 1384.6250849320263 395.17950978917975L1384.6250849320263 395.17950978917975L1386.5867017442674 380.40369483982977Q1386.9433593464933 378.7732600867981 1388.752122900638 378.5185046566368L1388.752122900638 378.5185046566368L1417.4885354228218 375.56334166676686Q1418.4820816004503 375.56334166676686 1418.7368370306117 376.04737698407314Q1419.017068003789 376.5314123013794 1419.0934946328375 377.62686065107266L1419.0934946328375 377.62686065107266L1420.265369611579 393.9057326383737L1420.0106141814176 461.2630683729967L1430.200831387866 461.2630683729967Q1431.6529373397848 461.2630683729967 1431.6529373397848 462.96992975507686L1431.6529373397848 462.96992975507686L1430.022502586753 474.7141550855084Q1429.8441737856401 475.78412789218555 1429.4365650973823 476.089834408379Q1429.054431952141 476.3955409245724 1427.882556973399 476.4974430966369L1427.882556973399 476.4974430966369ZM1416.9535490194835 355.4121871410154Q1415.2466876374033 356.7369153778537 1412.3934268195976 357.19547515214384Q1409.514690458776 357.65403492643406 1405.5405057482612 357.65403492643406Q1401.5408454947305 357.65403492643406 1399.4518509674085 357.19547515214384Q1397.3373808970705 356.7369153778537 1396.0890792892806 355.59051594212826L1396.0890792892806 355.59051594212826Q1394.0255603049745 353.425094785758 1394.0255603049745 347.9733285803082Q1394.0255603049745 342.49608683184226 1394.6114977943457 340.126861331343Q1395.197435283716 337.7576358308438 1396.8023944937318 336.4074320509894L1396.8023944937318 336.4074320509894Q1399.579228682489 334.08915763652243 1405.897163350487 334.08915763652243Q1412.2150980184847 334.08915763652243 1414.3550436318392 334.39486415271585Q1416.4949892451932 334.72604621192545 1417.7687663959991 335.87244564765086L1417.7687663959991 335.87244564765086Q1419.9087120093532 337.7576358308438 1419.9087120093532 343.4132063804226Q1419.9087120093532 349.04330138698526 1419.2718234339504 351.5653801455812Q1418.6604104015632 354.061983361161 1416.9535490194835 355.4121871410154ZM1447.8553826980374 427.0494141023467L1447.8553826980374 427.0494141023467Q1447.8553826980374 411.73861274965816 1450.4029369996497 401.57387108622606Q1452.950491301262 391.4091294227939 1457.9691732754377 385.3204746419411L1457.9691732754377 385.3204746419411Q1467.293222019338 374.31504005897693 1488.3360205506533 374.31504005897693L1488.3360205506533 374.31504005897693Q1503.009933327939 374.31504005897693 1509.786427770227 377.27020304884695Q1516.5374466694989 380.2253660387169 1520.4352047509656 383.97027086208664Q1524.3329628324318 387.74065122847253 1527.109797021189 393.6509772082125L1527.109797021189 393.6509772082125Q1532.6634653987035 405.7263845978537 1532.6634653987035 424.04330002644446Q1532.6634653987035 442.36021545503525 1530.1159110970912 452.3211527743384Q1527.5683567954793 462.25661455062544 1522.4477726492387 468.24336715941376L1522.4477726492387 468.24336715941376Q1512.970870647242 479.17237511332957 1491.7497433148137 479.17237511332957L1491.7497433148137 479.17237511332957Q1469.5350698047564 479.17237511332957 1459.39580368434 468.4216959605267L1459.39580368434 468.4216959605267Q1447.8553826980374 456.244386398821 1447.8553826980374 427.0494141023467ZM1508.8438326786304 454.91965816198274Q1511.5187646953232 451.32760659670964 1512.8689684751776 444.88229421363116Q1514.219172255032 438.43698183055267 1514.219172255032 429.11293308665245Q1514.219172255032 419.78888434275234 1513.2256260774034 414.05688716412516Q1512.2575554427908 408.32488998549803 1510.4997429746782 404.529034076096Q1508.741930506566 400.7331781666941 1506.3472294630506 398.5168059242916Q1503.9270528765192 396.3259092249052 1501.0483165156975 395.2559364182281L1501.0483165156975 395.2559364182281Q1496.7429497459734 393.6509772082125 1489.6862243305077 393.6509772082125Q1482.6040233720264 393.6509772082125 1478.4005587743663 394.7209500148896Q1474.1716186336903 395.79092282156665 1471.394784444933 399.2810722147752L1471.394784444933 399.2810722147752Q1466.121347040596 406.1085177430955 1466.121347040596 426.69275650012105L1466.121347040596 426.69275650012105Q1466.121347040596 455.98963096865975 1481.8907081675748 459.73453579202953L1481.8907081675748 459.73453579202953Q1486.7310613406376 460.90641077077106 1492.3611563472004 460.90641077077106Q1498.0167268967793 460.90641077077106 1502.0928137793585 459.7090602490134Q1506.1689006619376 458.4862341842396 1508.8438326786304 454.91965816198274Z " fill="#c5fad5" transform="matrix(0.5709015812691502,0,0,0.5709015812691502,0,67.1630295251443)"/></g></svg>